solid Default
  facet normal 0.000000e+00 0.000000e+00 -1.000000e+00
    outer loop
      vertex 7.500000e+01 -1.036514e+01 0.000000e+00
      vertex -7.500000e+01 -3.036514e+01 0.000000e+00
      vertex -7.500000e+01 -1.036514e+01 0.000000e+00
    endloop
  endfacet
  facet normal 0.000000e+00 0.000000e+00 -1.000000e+00
    outer loop
      vertex -7.500000e+01 -3.036514e+01 0.000000e+00
      vertex 7.500000e+01 -1.036514e+01 0.000000e+00
      vertex 7.500000e+01 -3.036514e+01 0.000000e+00
    endloop
  endfacet
  facet normal 0.000000e+00 1.000000e+00 0.000000e+00
    outer loop
      vertex -7.500000e+01 -1.036514e+01 0.000000e+00
      vertex -5.500000e+01 -1.036514e+01 8.000000e+00
      vertex 7.500000e+01 -1.036514e+01 0.000000e+00
    endloop
  endfacet
  facet normal 0.000000e+00 1.000000e+00 0.000000e+00
    outer loop
      vertex -5.500000e+01 -1.036514e+01 8.000000e+00
      vertex -7.500000e+01 -1.036514e+01 0.000000e+00
      vertex -7.500000e+01 -1.036514e+01 1.030000e+02
    endloop
  endfacet
  facet normal 0.000000e+00 1.000000e+00 0.000000e+00
    outer loop
      vertex -5.500000e+01 -1.036514e+01 8.000000e+00
      vertex -7.500000e+01 -1.036514e+01 1.030000e+02
      vertex -5.500000e+01 -1.036514e+01 1.030000e+02
    endloop
  endfacet
  facet normal 0.000000e+00 1.000000e+00 0.000000e+00
    outer loop
      vertex 7.500000e+01 -1.036514e+01 0.000000e+00
      vertex 5.500000e+01 -1.036514e+01 8.000000e+00
      vertex 7.500000e+01 -1.036514e+01 1.030000e+02
    endloop
  endfacet
  facet normal 0.000000e+00 1.000000e+00 0.000000e+00
    outer loop
      vertex 5.500000e+01 -1.036514e+01 8.000000e+00
      vertex 7.500000e+01 -1.036514e+01 0.000000e+00
      vertex -5.500000e+01 -1.036514e+01 8.000000e+00
    endloop
  endfacet
  facet normal 0.000000e+00 1.000000e+00 0.000000e+00
    outer loop
      vertex 7.500000e+01 -1.036514e+01 1.030000e+02
      vertex 5.500000e+01 -1.036514e+01 8.000000e+00
      vertex 5.500000e+01 -1.036514e+01 1.030000e+02
    endloop
  endfacet
  facet normal 1.000000e+00 0.000000e+00 0.000000e+00
    outer loop
      vertex 7.500000e+01 -1.036514e+01 0.000000e+00
      vertex 7.500000e+01 -3.036514e+01 1.030000e+02
      vertex 7.500000e+01 -3.036514e+01 0.000000e+00
    endloop
  endfacet
  facet normal 1.000000e+00 0.000000e+00 0.000000e+00
    outer loop
      vertex 7.500000e+01 -3.036514e+01 1.030000e+02
      vertex 7.500000e+01 -1.036514e+01 0.000000e+00
      vertex 7.500000e+01 -1.036514e+01 1.030000e+02
    endloop
  endfacet
  facet normal 0.000000e+00 -1.000000e+00 0.000000e+00
    outer loop
      vertex 7.500000e+01 -3.036514e+01 0.000000e+00
      vertex 5.500000e+01 -3.036514e+01 8.000000e+00
      vertex -7.500000e+01 -3.036514e+01 0.000000e+00
    endloop
  endfacet
  facet normal 0.000000e+00 -1.000000e+00 0.000000e+00
    outer loop
      vertex 5.500000e+01 -3.036514e+01 8.000000e+00
      vertex 7.500000e+01 -3.036514e+01 0.000000e+00
      vertex 7.500000e+01 -3.036514e+01 1.030000e+02
    endloop
  endfacet
  facet normal 0.000000e+00 -1.000000e+00 0.000000e+00
    outer loop
      vertex 5.500000e+01 -3.036514e+01 8.000000e+00
      vertex 7.500000e+01 -3.036514e+01 1.030000e+02
      vertex 5.500000e+01 -3.036514e+01 1.030000e+02
    endloop
  endfacet
  facet normal 0.000000e+00 -1.000000e+00 0.000000e+00
    outer loop
      vertex -7.500000e+01 -3.036514e+01 0.000000e+00
      vertex -5.500000e+01 -3.036514e+01 8.000000e+00
      vertex -7.500000e+01 -3.036514e+01 1.030000e+02
    endloop
  endfacet
  facet normal 0.000000e+00 -1.000000e+00 0.000000e+00
    outer loop
      vertex -5.500000e+01 -3.036514e+01 8.000000e+00
      vertex -7.500000e+01 -3.036514e+01 0.000000e+00
      vertex 5.500000e+01 -3.036514e+01 8.000000e+00
    endloop
  endfacet
  facet normal 0.000000e+00 -1.000000e+00 0.000000e+00
    outer loop
      vertex -7.500000e+01 -3.036514e+01 1.030000e+02
      vertex -5.500000e+01 -3.036514e+01 8.000000e+00
      vertex -5.500000e+01 -3.036514e+01 1.030000e+02
    endloop
  endfacet
  facet normal -1.000000e+00 0.000000e+00 0.000000e+00
    outer loop
      vertex -7.500000e+01 -1.036514e+01 1.030000e+02
      vertex -7.500000e+01 -3.036514e+01 0.000000e+00
      vertex -7.500000e+01 -3.036514e+01 1.030000e+02
    endloop
  endfacet
  facet normal -1.000000e+00 0.000000e+00 0.000000e+00
    outer loop
      vertex -7.500000e+01 -3.036514e+01 0.000000e+00
      vertex -7.500000e+01 -1.036514e+01 1.030000e+02
      vertex -7.500000e+01 -1.036514e+01 0.000000e+00
    endloop
  endfacet
  facet normal 0.000000e+00 0.000000e+00 1.000000e+00
    outer loop
      vertex 5.500000e+01 -3.036514e+01 8.000000e+00
      vertex -5.500000e+01 -1.036514e+01 8.000000e+00
      vertex -5.500000e+01 -3.036514e+01 8.000000e+00
    endloop
  endfacet
  facet normal 0.000000e+00 0.000000e+00 1.000000e+00
    outer loop
      vertex -5.500000e+01 -1.036514e+01 8.000000e+00
      vertex 5.500000e+01 -3.036514e+01 8.000000e+00
      vertex 5.500000e+01 -1.036514e+01 8.000000e+00
    endloop
  endfacet
  facet normal 0.000000e+00 0.000000e+00 1.000000e+00
    outer loop
      vertex -5.500000e+01 -3.036514e+01 1.030000e+02
      vertex -7.500000e+01 -1.036514e+01 1.030000e+02
      vertex -7.500000e+01 -3.036514e+01 1.030000e+02
    endloop
  endfacet
  facet normal 0.000000e+00 0.000000e+00 1.000000e+00
    outer loop
      vertex -7.500000e+01 -1.036514e+01 1.030000e+02
      vertex -5.500000e+01 -3.036514e+01 1.030000e+02
      vertex -5.500000e+01 -1.036514e+01 1.030000e+02
    endloop
  endfacet
  facet normal 1.000000e+00 0.000000e+00 0.000000e+00
    outer loop
      vertex -5.500000e+01 -1.036514e+01 8.000000e+00
      vertex -5.500000e+01 -3.036514e+01 1.030000e+02
      vertex -5.500000e+01 -3.036514e+01 8.000000e+00
    endloop
  endfacet
  facet normal 1.000000e+00 0.000000e+00 0.000000e+00
    outer loop
      vertex -5.500000e+01 -3.036514e+01 1.030000e+02
      vertex -5.500000e+01 -1.036514e+01 8.000000e+00
      vertex -5.500000e+01 -1.036514e+01 1.030000e+02
    endloop
  endfacet
  facet normal 0.000000e+00 0.000000e+00 1.000000e+00
    outer loop
      vertex 7.500000e+01 -3.036514e+01 1.030000e+02
      vertex 5.500000e+01 -1.036514e+01 1.030000e+02
      vertex 5.500000e+01 -3.036514e+01 1.030000e+02
    endloop
  endfacet
  facet normal 0.000000e+00 0.000000e+00 1.000000e+00
    outer loop
      vertex 5.500000e+01 -1.036514e+01 1.030000e+02
      vertex 7.500000e+01 -3.036514e+01 1.030000e+02
      vertex 7.500000e+01 -1.036514e+01 1.030000e+02
    endloop
  endfacet
  facet normal -1.000000e+00 -0.000000e+00 -0.000000e+00
    outer loop
      vertex 5.500000e+01 -1.036514e+01 1.030000e+02
      vertex 5.500000e+01 -3.036514e+01 8.000000e+00
      vertex 5.500000e+01 -3.036514e+01 1.030000e+02
    endloop
  endfacet
  facet normal -1.000000e+00 -0.000000e+00 -0.000000e+00
    outer loop
      vertex 5.500000e+01 -3.036514e+01 8.000000e+00
      vertex 5.500000e+01 -1.036514e+01 1.030000e+02
      vertex 5.500000e+01 -1.036514e+01 8.000000e+00
    endloop
  endfacet
  facet normal 0.000000e+00 0.000000e+00 1.000000e+00
    outer loop
      vertex 7.500000e+01 1.036514e+01 1.030000e+02
      vertex 5.500000e+01 3.036514e+01 1.030000e+02
      vertex 5.500000e+01 1.036514e+01 1.030000e+02
    endloop
  endfacet
  facet normal 0.000000e+00 0.000000e+00 1.000000e+00
    outer loop
      vertex 5.500000e+01 3.036514e+01 1.030000e+02
      vertex 7.500000e+01 1.036514e+01 1.030000e+02
      vertex 7.500000e+01 3.036514e+01 1.030000e+02
    endloop
  endfacet
  facet normal 1.000000e+00 0.000000e+00 0.000000e+00
    outer loop
      vertex 7.500000e+01 3.036514e+01 0.000000e+00
      vertex 7.500000e+01 1.036514e+01 1.030000e+02
      vertex 7.500000e+01 1.036514e+01 0.000000e+00
    endloop
  endfacet
  facet normal 1.000000e+00 0.000000e+00 0.000000e+00
    outer loop
      vertex 7.500000e+01 1.036514e+01 1.030000e+02
      vertex 7.500000e+01 3.036514e+01 0.000000e+00
      vertex 7.500000e+01 3.036514e+01 1.030000e+02
    endloop
  endfacet
  facet normal 0.000000e+00 -1.000000e+00 0.000000e+00
    outer loop
      vertex 7.500000e+01 1.036514e+01 0.000000e+00
      vertex 5.500000e+01 1.036514e+01 8.000000e+00
      vertex -7.500000e+01 1.036514e+01 0.000000e+00
    endloop
  endfacet
  facet normal 0.000000e+00 -1.000000e+00 0.000000e+00
    outer loop
      vertex 5.500000e+01 1.036514e+01 8.000000e+00
      vertex 7.500000e+01 1.036514e+01 0.000000e+00
      vertex 7.500000e+01 1.036514e+01 1.030000e+02
    endloop
  endfacet
  facet normal 0.000000e+00 -1.000000e+00 0.000000e+00
    outer loop
      vertex 5.500000e+01 1.036514e+01 8.000000e+00
      vertex 7.500000e+01 1.036514e+01 1.030000e+02
      vertex 5.500000e+01 1.036514e+01 1.030000e+02
    endloop
  endfacet
  facet normal 0.000000e+00 -1.000000e+00 0.000000e+00
    outer loop
      vertex -7.500000e+01 1.036514e+01 0.000000e+00
      vertex -5.500000e+01 1.036514e+01 8.000000e+00
      vertex -7.500000e+01 1.036514e+01 1.030000e+02
    endloop
  endfacet
  facet normal 0.000000e+00 -1.000000e+00 0.000000e+00
    outer loop
      vertex -5.500000e+01 1.036514e+01 8.000000e+00
      vertex -7.500000e+01 1.036514e+01 0.000000e+00
      vertex 5.500000e+01 1.036514e+01 8.000000e+00
    endloop
  endfacet
  facet normal 0.000000e+00 -1.000000e+00 0.000000e+00
    outer loop
      vertex -7.500000e+01 1.036514e+01 1.030000e+02
      vertex -5.500000e+01 1.036514e+01 8.000000e+00
      vertex -5.500000e+01 1.036514e+01 1.030000e+02
    endloop
  endfacet
  facet normal 0.000000e+00 1.000000e+00 0.000000e+00
    outer loop
      vertex -7.500000e+01 3.036514e+01 0.000000e+00
      vertex -5.500000e+01 3.036514e+01 8.000000e+00
      vertex 7.500000e+01 3.036514e+01 0.000000e+00
    endloop
  endfacet
  facet normal 0.000000e+00 1.000000e+00 0.000000e+00
    outer loop
      vertex -5.500000e+01 3.036514e+01 8.000000e+00
      vertex -7.500000e+01 3.036514e+01 0.000000e+00
      vertex -7.500000e+01 3.036514e+01 1.030000e+02
    endloop
  endfacet
  facet normal 0.000000e+00 1.000000e+00 0.000000e+00
    outer loop
      vertex -5.500000e+01 3.036514e+01 8.000000e+00
      vertex -7.500000e+01 3.036514e+01 1.030000e+02
      vertex -5.500000e+01 3.036514e+01 1.030000e+02
    endloop
  endfacet
  facet normal 0.000000e+00 1.000000e+00 0.000000e+00
    outer loop
      vertex 7.500000e+01 3.036514e+01 0.000000e+00
      vertex 5.500000e+01 3.036514e+01 8.000000e+00
      vertex 7.500000e+01 3.036514e+01 1.030000e+02
    endloop
  endfacet
  facet normal 0.000000e+00 1.000000e+00 0.000000e+00
    outer loop
      vertex 5.500000e+01 3.036514e+01 8.000000e+00
      vertex 7.500000e+01 3.036514e+01 0.000000e+00
      vertex -5.500000e+01 3.036514e+01 8.000000e+00
    endloop
  endfacet
  facet normal 0.000000e+00 1.000000e+00 0.000000e+00
    outer loop
      vertex 7.500000e+01 3.036514e+01 1.030000e+02
      vertex 5.500000e+01 3.036514e+01 8.000000e+00
      vertex 5.500000e+01 3.036514e+01 1.030000e+02
    endloop
  endfacet
  facet normal -1.000000e+00 0.000000e+00 0.000000e+00
    outer loop
      vertex -7.500000e+01 3.036514e+01 1.030000e+02
      vertex -7.500000e+01 1.036514e+01 0.000000e+00
      vertex -7.500000e+01 1.036514e+01 1.030000e+02
    endloop
  endfacet
  facet normal -1.000000e+00 0.000000e+00 0.000000e+00
    outer loop
      vertex -7.500000e+01 1.036514e+01 0.000000e+00
      vertex -7.500000e+01 3.036514e+01 1.030000e+02
      vertex -7.500000e+01 3.036514e+01 0.000000e+00
    endloop
  endfacet
  facet normal -1.000000e+00 -0.000000e+00 -0.000000e+00
    outer loop
      vertex 5.500000e+01 3.036514e+01 1.030000e+02
      vertex 5.500000e+01 1.036514e+01 8.000000e+00
      vertex 5.500000e+01 1.036514e+01 1.030000e+02
    endloop
  endfacet
  facet normal -1.000000e+00 -0.000000e+00 -0.000000e+00
    outer loop
      vertex 5.500000e+01 1.036514e+01 8.000000e+00
      vertex 5.500000e+01 3.036514e+01 1.030000e+02
      vertex 5.500000e+01 3.036514e+01 8.000000e+00
    endloop
  endfacet
  facet normal 0.000000e+00 0.000000e+00 1.000000e+00
    outer loop
      vertex -5.500000e+01 1.036514e+01 1.030000e+02
      vertex -7.500000e+01 3.036514e+01 1.030000e+02
      vertex -7.500000e+01 1.036514e+01 1.030000e+02
    endloop
  endfacet
  facet normal 0.000000e+00 0.000000e+00 1.000000e+00
    outer loop
      vertex -7.500000e+01 3.036514e+01 1.030000e+02
      vertex -5.500000e+01 1.036514e+01 1.030000e+02
      vertex -5.500000e+01 3.036514e+01 1.030000e+02
    endloop
  endfacet
  facet normal 0.000000e+00 0.000000e+00 -1.000000e+00
    outer loop
      vertex 7.500000e+01 3.036514e+01 0.000000e+00
      vertex -7.500000e+01 1.036514e+01 0.000000e+00
      vertex -7.500000e+01 3.036514e+01 0.000000e+00
    endloop
  endfacet
  facet normal 0.000000e+00 0.000000e+00 -1.000000e+00
    outer loop
      vertex -7.500000e+01 1.036514e+01 0.000000e+00
      vertex 7.500000e+01 3.036514e+01 0.000000e+00
      vertex 7.500000e+01 1.036514e+01 0.000000e+00
    endloop
  endfacet
  facet normal 0.000000e+00 0.000000e+00 1.000000e+00
    outer loop
      vertex 5.500000e+01 1.036514e+01 8.000000e+00
      vertex -5.500000e+01 3.036514e+01 8.000000e+00
      vertex -5.500000e+01 1.036514e+01 8.000000e+00
    endloop
  endfacet
  facet normal 0.000000e+00 0.000000e+00 1.000000e+00
    outer loop
      vertex -5.500000e+01 3.036514e+01 8.000000e+00
      vertex 5.500000e+01 1.036514e+01 8.000000e+00
      vertex 5.500000e+01 3.036514e+01 8.000000e+00
    endloop
  endfacet
  facet normal 1.000000e+00 0.000000e+00 0.000000e+00
    outer loop
      vertex -5.500000e+01 3.036514e+01 8.000000e+00
      vertex -5.500000e+01 1.036514e+01 1.030000e+02
      vertex -5.500000e+01 1.036514e+01 8.000000e+00
    endloop
  endfacet
  facet normal 1.000000e+00 0.000000e+00 0.000000e+00
    outer loop
      vertex -5.500000e+01 1.036514e+01 1.030000e+02
      vertex -5.500000e+01 3.036514e+01 8.000000e+00
      vertex -5.500000e+01 3.036514e+01 1.030000e+02
    endloop
  endfacet
endsolid Default
