solid Default
  facet normal 0.000000e+00 0.000000e+00 1.000000e+00
    outer loop
      vertex 9.521254e+01 4.343456e+00 5.300000e+01
      vertex 7.516609e+01 2.434346e+01 5.300000e+01
      vertex 7.516609e+01 4.343456e+00 5.300000e+01
    endloop
  endfacet
  facet normal 0.000000e+00 0.000000e+00 1.000000e+00
    outer loop
      vertex 7.516609e+01 2.434346e+01 5.300000e+01
      vertex 9.521254e+01 4.343456e+00 5.300000e+01
      vertex 9.521254e+01 2.434346e+01 5.300000e+01
    endloop
  endfacet
  facet normal 1.000000e+00 0.000000e+00 0.000000e+00
    outer loop
      vertex 9.521254e+01 2.434346e+01 0.000000e+00
      vertex 9.521254e+01 4.343456e+00 5.300000e+01
      vertex 9.521254e+01 4.343456e+00 0.000000e+00
    endloop
  endfacet
  facet normal 1.000000e+00 0.000000e+00 0.000000e+00
    outer loop
      vertex 9.521254e+01 4.343456e+00 5.300000e+01
      vertex 9.521254e+01 2.434346e+01 0.000000e+00
      vertex 9.521254e+01 2.434346e+01 5.300000e+01
    endloop
  endfacet
  facet normal 0.000000e+00 -1.000000e+00 0.000000e+00
    outer loop
      vertex 9.521254e+01 4.343456e+00 0.000000e+00
      vertex 7.516609e+01 4.343456e+00 8.000000e+00
      vertex -9.521254e+01 4.343456e+00 0.000000e+00
    endloop
  endfacet
  facet normal 0.000000e+00 -1.000000e+00 0.000000e+00
    outer loop
      vertex 7.516609e+01 4.343456e+00 8.000000e+00
      vertex 9.521254e+01 4.343456e+00 0.000000e+00
      vertex 9.521254e+01 4.343456e+00 5.300000e+01
    endloop
  endfacet
  facet normal 0.000000e+00 -1.000000e+00 0.000000e+00
    outer loop
      vertex 7.516609e+01 4.343456e+00 8.000000e+00
      vertex 9.521254e+01 4.343456e+00 5.300000e+01
      vertex 7.516609e+01 4.343456e+00 5.300000e+01
    endloop
  endfacet
  facet normal 0.000000e+00 -1.000000e+00 0.000000e+00
    outer loop
      vertex -9.521254e+01 4.343456e+00 0.000000e+00
      vertex -7.521254e+01 4.343456e+00 8.000000e+00
      vertex -9.521254e+01 4.343456e+00 5.300000e+01
    endloop
  endfacet
  facet normal 0.000000e+00 -1.000000e+00 0.000000e+00
    outer loop
      vertex -7.521254e+01 4.343456e+00 8.000000e+00
      vertex -9.521254e+01 4.343456e+00 0.000000e+00
      vertex 7.516609e+01 4.343456e+00 8.000000e+00
    endloop
  endfacet
  facet normal 0.000000e+00 -1.000000e+00 0.000000e+00
    outer loop
      vertex -9.521254e+01 4.343456e+00 5.300000e+01
      vertex -7.521254e+01 4.343456e+00 8.000000e+00
      vertex -7.521254e+01 4.343456e+00 5.300000e+01
    endloop
  endfacet
  facet normal 0.000000e+00 1.000000e+00 0.000000e+00
    outer loop
      vertex -9.521254e+01 2.434346e+01 0.000000e+00
      vertex -7.521254e+01 2.434346e+01 8.000000e+00
      vertex 9.521254e+01 2.434346e+01 0.000000e+00
    endloop
  endfacet
  facet normal 0.000000e+00 1.000000e+00 0.000000e+00
    outer loop
      vertex -7.521254e+01 2.434346e+01 8.000000e+00
      vertex -9.521254e+01 2.434346e+01 0.000000e+00
      vertex -9.521254e+01 2.434346e+01 5.300000e+01
    endloop
  endfacet
  facet normal 0.000000e+00 1.000000e+00 0.000000e+00
    outer loop
      vertex -7.521254e+01 2.434346e+01 8.000000e+00
      vertex -9.521254e+01 2.434346e+01 5.300000e+01
      vertex -7.521254e+01 2.434346e+01 5.300000e+01
    endloop
  endfacet
  facet normal 0.000000e+00 1.000000e+00 0.000000e+00
    outer loop
      vertex 9.521254e+01 2.434346e+01 0.000000e+00
      vertex 7.516609e+01 2.434346e+01 8.000000e+00
      vertex 9.521254e+01 2.434346e+01 5.300000e+01
    endloop
  endfacet
  facet normal 0.000000e+00 1.000000e+00 0.000000e+00
    outer loop
      vertex 7.516609e+01 2.434346e+01 8.000000e+00
      vertex 9.521254e+01 2.434346e+01 0.000000e+00
      vertex -7.521254e+01 2.434346e+01 8.000000e+00
    endloop
  endfacet
  facet normal 0.000000e+00 1.000000e+00 0.000000e+00
    outer loop
      vertex 9.521254e+01 2.434346e+01 5.300000e+01
      vertex 7.516609e+01 2.434346e+01 8.000000e+00
      vertex 7.516609e+01 2.434346e+01 5.300000e+01
    endloop
  endfacet
  facet normal -1.000000e+00 0.000000e+00 0.000000e+00
    outer loop
      vertex -9.521254e+01 2.434346e+01 5.300000e+01
      vertex -9.521254e+01 4.343456e+00 0.000000e+00
      vertex -9.521254e+01 4.343456e+00 5.300000e+01
    endloop
  endfacet
  facet normal -1.000000e+00 0.000000e+00 0.000000e+00
    outer loop
      vertex -9.521254e+01 4.343456e+00 0.000000e+00
      vertex -9.521254e+01 2.434346e+01 5.300000e+01
      vertex -9.521254e+01 2.434346e+01 0.000000e+00
    endloop
  endfacet
  facet normal -1.000000e+00 -0.000000e+00 -0.000000e+00
    outer loop
      vertex 7.516609e+01 2.434346e+01 5.300000e+01
      vertex 7.516609e+01 4.343456e+00 8.000000e+00
      vertex 7.516609e+01 4.343456e+00 5.300000e+01
    endloop
  endfacet
  facet normal -1.000000e+00 -0.000000e+00 -0.000000e+00
    outer loop
      vertex 7.516609e+01 4.343456e+00 8.000000e+00
      vertex 7.516609e+01 2.434346e+01 5.300000e+01
      vertex 7.516609e+01 2.434346e+01 8.000000e+00
    endloop
  endfacet
  facet normal 0.000000e+00 0.000000e+00 1.000000e+00
    outer loop
      vertex -7.521254e+01 4.343456e+00 5.300000e+01
      vertex -9.521254e+01 2.434346e+01 5.300000e+01
      vertex -9.521254e+01 4.343456e+00 5.300000e+01
    endloop
  endfacet
  facet normal 0.000000e+00 0.000000e+00 1.000000e+00
    outer loop
      vertex -9.521254e+01 2.434346e+01 5.300000e+01
      vertex -7.521254e+01 4.343456e+00 5.300000e+01
      vertex -7.521254e+01 2.434346e+01 5.300000e+01
    endloop
  endfacet
  facet normal 0.000000e+00 0.000000e+00 -1.000000e+00
    outer loop
      vertex 9.521254e+01 2.434346e+01 0.000000e+00
      vertex -9.521254e+01 4.343456e+00 0.000000e+00
      vertex -9.521254e+01 2.434346e+01 0.000000e+00
    endloop
  endfacet
  facet normal 0.000000e+00 0.000000e+00 -1.000000e+00
    outer loop
      vertex -9.521254e+01 4.343456e+00 0.000000e+00
      vertex 9.521254e+01 2.434346e+01 0.000000e+00
      vertex 9.521254e+01 4.343456e+00 0.000000e+00
    endloop
  endfacet
  facet normal 0.000000e+00 0.000000e+00 1.000000e+00
    outer loop
      vertex 7.516609e+01 4.343456e+00 8.000000e+00
      vertex -7.521254e+01 2.434346e+01 8.000000e+00
      vertex -7.521254e+01 4.343456e+00 8.000000e+00
    endloop
  endfacet
  facet normal 0.000000e+00 0.000000e+00 1.000000e+00
    outer loop
      vertex -7.521254e+01 2.434346e+01 8.000000e+00
      vertex 7.516609e+01 4.343456e+00 8.000000e+00
      vertex 7.516609e+01 2.434346e+01 8.000000e+00
    endloop
  endfacet
  facet normal 1.000000e+00 0.000000e+00 0.000000e+00
    outer loop
      vertex -7.521254e+01 2.434346e+01 8.000000e+00
      vertex -7.521254e+01 4.343456e+00 5.300000e+01
      vertex -7.521254e+01 4.343456e+00 8.000000e+00
    endloop
  endfacet
  facet normal 1.000000e+00 0.000000e+00 0.000000e+00
    outer loop
      vertex -7.521254e+01 4.343456e+00 5.300000e+01
      vertex -7.521254e+01 2.434346e+01 8.000000e+00
      vertex -7.521254e+01 2.434346e+01 5.300000e+01
    endloop
  endfacet
  facet normal 0.000000e+00 0.000000e+00 1.000000e+00
    outer loop
      vertex 9.521254e+01 -2.434346e+01 5.300000e+01
      vertex 7.516609e+01 -4.343456e+00 5.300000e+01
      vertex 7.516609e+01 -2.434346e+01 5.300000e+01
    endloop
  endfacet
  facet normal 0.000000e+00 0.000000e+00 1.000000e+00
    outer loop
      vertex 7.516609e+01 -4.343456e+00 5.300000e+01
      vertex 9.521254e+01 -2.434346e+01 5.300000e+01
      vertex 9.521254e+01 -4.343456e+00 5.300000e+01
    endloop
  endfacet
  facet normal 1.000000e+00 0.000000e+00 0.000000e+00
    outer loop
      vertex 9.521254e+01 -4.343456e+00 0.000000e+00
      vertex 9.521254e+01 -2.434346e+01 5.300000e+01
      vertex 9.521254e+01 -2.434346e+01 0.000000e+00
    endloop
  endfacet
  facet normal 1.000000e+00 0.000000e+00 0.000000e+00
    outer loop
      vertex 9.521254e+01 -2.434346e+01 5.300000e+01
      vertex 9.521254e+01 -4.343456e+00 0.000000e+00
      vertex 9.521254e+01 -4.343456e+00 5.300000e+01
    endloop
  endfacet
  facet normal 0.000000e+00 -1.000000e+00 0.000000e+00
    outer loop
      vertex 9.521254e+01 -2.434346e+01 0.000000e+00
      vertex 7.516609e+01 -2.434346e+01 8.000000e+00
      vertex -9.521254e+01 -2.434346e+01 0.000000e+00
    endloop
  endfacet
  facet normal 0.000000e+00 -1.000000e+00 0.000000e+00
    outer loop
      vertex 7.516609e+01 -2.434346e+01 8.000000e+00
      vertex 9.521254e+01 -2.434346e+01 0.000000e+00
      vertex 9.521254e+01 -2.434346e+01 5.300000e+01
    endloop
  endfacet
  facet normal 0.000000e+00 -1.000000e+00 0.000000e+00
    outer loop
      vertex 7.516609e+01 -2.434346e+01 8.000000e+00
      vertex 9.521254e+01 -2.434346e+01 5.300000e+01
      vertex 7.516609e+01 -2.434346e+01 5.300000e+01
    endloop
  endfacet
  facet normal 0.000000e+00 -1.000000e+00 0.000000e+00
    outer loop
      vertex -9.521254e+01 -2.434346e+01 0.000000e+00
      vertex -7.521254e+01 -2.434346e+01 8.000000e+00
      vertex -9.521254e+01 -2.434346e+01 5.300000e+01
    endloop
  endfacet
  facet normal 0.000000e+00 -1.000000e+00 0.000000e+00
    outer loop
      vertex -7.521254e+01 -2.434346e+01 8.000000e+00
      vertex -9.521254e+01 -2.434346e+01 0.000000e+00
      vertex 7.516609e+01 -2.434346e+01 8.000000e+00
    endloop
  endfacet
  facet normal 0.000000e+00 -1.000000e+00 0.000000e+00
    outer loop
      vertex -9.521254e+01 -2.434346e+01 5.300000e+01
      vertex -7.521254e+01 -2.434346e+01 8.000000e+00
      vertex -7.521254e+01 -2.434346e+01 5.300000e+01
    endloop
  endfacet
  facet normal 0.000000e+00 1.000000e+00 0.000000e+00
    outer loop
      vertex -9.521254e+01 -4.343456e+00 0.000000e+00
      vertex -7.521254e+01 -4.343456e+00 8.000000e+00
      vertex 9.521254e+01 -4.343456e+00 0.000000e+00
    endloop
  endfacet
  facet normal 0.000000e+00 1.000000e+00 0.000000e+00
    outer loop
      vertex -7.521254e+01 -4.343456e+00 8.000000e+00
      vertex -9.521254e+01 -4.343456e+00 0.000000e+00
      vertex -9.521254e+01 -4.343456e+00 5.300000e+01
    endloop
  endfacet
  facet normal 0.000000e+00 1.000000e+00 0.000000e+00
    outer loop
      vertex -7.521254e+01 -4.343456e+00 8.000000e+00
      vertex -9.521254e+01 -4.343456e+00 5.300000e+01
      vertex -7.521254e+01 -4.343456e+00 5.300000e+01
    endloop
  endfacet
  facet normal 0.000000e+00 1.000000e+00 0.000000e+00
    outer loop
      vertex 9.521254e+01 -4.343456e+00 0.000000e+00
      vertex 7.516609e+01 -4.343456e+00 8.000000e+00
      vertex 9.521254e+01 -4.343456e+00 5.300000e+01
    endloop
  endfacet
  facet normal 0.000000e+00 1.000000e+00 0.000000e+00
    outer loop
      vertex 7.516609e+01 -4.343456e+00 8.000000e+00
      vertex 9.521254e+01 -4.343456e+00 0.000000e+00
      vertex -7.521254e+01 -4.343456e+00 8.000000e+00
    endloop
  endfacet
  facet normal 0.000000e+00 1.000000e+00 0.000000e+00
    outer loop
      vertex 9.521254e+01 -4.343456e+00 5.300000e+01
      vertex 7.516609e+01 -4.343456e+00 8.000000e+00
      vertex 7.516609e+01 -4.343456e+00 5.300000e+01
    endloop
  endfacet
  facet normal -1.000000e+00 0.000000e+00 0.000000e+00
    outer loop
      vertex -9.521254e+01 -4.343456e+00 5.300000e+01
      vertex -9.521254e+01 -2.434346e+01 0.000000e+00
      vertex -9.521254e+01 -2.434346e+01 5.300000e+01
    endloop
  endfacet
  facet normal -1.000000e+00 0.000000e+00 0.000000e+00
    outer loop
      vertex -9.521254e+01 -2.434346e+01 0.000000e+00
      vertex -9.521254e+01 -4.343456e+00 5.300000e+01
      vertex -9.521254e+01 -4.343456e+00 0.000000e+00
    endloop
  endfacet
  facet normal -1.000000e+00 -0.000000e+00 -0.000000e+00
    outer loop
      vertex 7.516609e+01 -4.343456e+00 5.300000e+01
      vertex 7.516609e+01 -2.434346e+01 8.000000e+00
      vertex 7.516609e+01 -2.434346e+01 5.300000e+01
    endloop
  endfacet
  facet normal -1.000000e+00 -0.000000e+00 -0.000000e+00
    outer loop
      vertex 7.516609e+01 -2.434346e+01 8.000000e+00
      vertex 7.516609e+01 -4.343456e+00 5.300000e+01
      vertex 7.516609e+01 -4.343456e+00 8.000000e+00
    endloop
  endfacet
  facet normal 0.000000e+00 0.000000e+00 1.000000e+00
    outer loop
      vertex -7.521254e+01 -2.434346e+01 5.300000e+01
      vertex -9.521254e+01 -4.343456e+00 5.300000e+01
      vertex -9.521254e+01 -2.434346e+01 5.300000e+01
    endloop
  endfacet
  facet normal 0.000000e+00 0.000000e+00 1.000000e+00
    outer loop
      vertex -9.521254e+01 -4.343456e+00 5.300000e+01
      vertex -7.521254e+01 -2.434346e+01 5.300000e+01
      vertex -7.521254e+01 -4.343456e+00 5.300000e+01
    endloop
  endfacet
  facet normal 0.000000e+00 0.000000e+00 -1.000000e+00
    outer loop
      vertex 9.521254e+01 -4.343456e+00 0.000000e+00
      vertex -9.521254e+01 -2.434346e+01 0.000000e+00
      vertex -9.521254e+01 -4.343456e+00 0.000000e+00
    endloop
  endfacet
  facet normal 0.000000e+00 0.000000e+00 -1.000000e+00
    outer loop
      vertex -9.521254e+01 -2.434346e+01 0.000000e+00
      vertex 9.521254e+01 -4.343456e+00 0.000000e+00
      vertex 9.521254e+01 -2.434346e+01 0.000000e+00
    endloop
  endfacet
  facet normal 0.000000e+00 0.000000e+00 1.000000e+00
    outer loop
      vertex 7.516609e+01 -2.434346e+01 8.000000e+00
      vertex -7.521254e+01 -4.343456e+00 8.000000e+00
      vertex -7.521254e+01 -2.434346e+01 8.000000e+00
    endloop
  endfacet
  facet normal 0.000000e+00 0.000000e+00 1.000000e+00
    outer loop
      vertex -7.521254e+01 -4.343456e+00 8.000000e+00
      vertex 7.516609e+01 -2.434346e+01 8.000000e+00
      vertex 7.516609e+01 -4.343456e+00 8.000000e+00
    endloop
  endfacet
  facet normal 1.000000e+00 0.000000e+00 0.000000e+00
    outer loop
      vertex -7.521254e+01 -4.343456e+00 8.000000e+00
      vertex -7.521254e+01 -2.434346e+01 5.300000e+01
      vertex -7.521254e+01 -2.434346e+01 8.000000e+00
    endloop
  endfacet
  facet normal 1.000000e+00 0.000000e+00 0.000000e+00
    outer loop
      vertex -7.521254e+01 -2.434346e+01 5.300000e+01
      vertex -7.521254e+01 -4.343456e+00 8.000000e+00
      vertex -7.521254e+01 -4.343456e+00 5.300000e+01
    endloop
  endfacet
endsolid Default
