solid Default
  facet normal 0.000000e+00 0.000000e+00 -1.000000e+00
    outer loop
      vertex -2.006450e+01 8.181569e+00 0.000000e+00
      vertex -2.206450e+01 3.021994e+00 0.000000e+00
      vertex -2.206450e+01 8.521994e+00 0.000000e+00
    endloop
  endfacet
  facet normal 0.000000e+00 0.000000e+00 -1.000000e+00
    outer loop
      vertex 2.493550e+01 5.219945e-01 0.000000e+00
      vertex 2.297607e+01 -5.217820e+00 0.000000e+00
      vertex 2.297607e+01 8.555135e-01 0.000000e+00
    endloop
  endfacet
  facet normal 0.000000e+00 0.000000e+00 -1.000000e+00
    outer loop
      vertex 2.956450e+01 5.219945e-01 0.000000e+00
      vertex 2.744381e+01 -6.478006e+00 0.000000e+00
      vertex 2.744381e+01 5.219945e-01 0.000000e+00
    endloop
  endfacet
  facet normal 0.000000e+00 0.000000e+00 -1.000000e+00
    outer loop
      vertex -2.756450e+01 8.521994e+00 0.000000e+00
      vertex -2.956450e+01 2.077010e+00 0.000000e+00
      vertex -2.956450e+01 8.521994e+00 0.000000e+00
    endloop
  endfacet
  facet normal 0.000000e+00 0.000000e+00 -1.000000e+00
    outer loop
      vertex -2.956450e+01 2.077010e+00 0.000000e+00
      vertex -2.756450e+01 8.521994e+00 0.000000e+00
      vertex -2.756450e+01 3.021994e+00 0.000000e+00
    endloop
  endfacet
  facet normal 0.000000e+00 0.000000e+00 -1.000000e+00
    outer loop
      vertex -2.956450e+01 2.077010e+00 0.000000e+00
      vertex -2.756450e+01 3.021994e+00 0.000000e+00
      vertex 2.543550e+01 -8.478006e+00 0.000000e+00
    endloop
  endfacet
  facet normal 0.000000e+00 0.000000e+00 -1.000000e+00
    outer loop
      vertex 2.543550e+01 -8.478006e+00 0.000000e+00
      vertex -2.756450e+01 3.021994e+00 0.000000e+00
      vertex -2.206450e+01 3.021994e+00 0.000000e+00
    endloop
  endfacet
  facet normal 0.000000e+00 0.000000e+00 -1.000000e+00
    outer loop
      vertex 2.543550e+01 -8.478006e+00 0.000000e+00
      vertex -2.206450e+01 3.021994e+00 0.000000e+00
      vertex -2.006450e+01 3.021994e+00 0.000000e+00
    endloop
  endfacet
  facet normal 0.000000e+00 0.000000e+00 -1.000000e+00
    outer loop
      vertex -2.006450e+01 3.021994e+00 0.000000e+00
      vertex -2.206450e+01 3.021994e+00 0.000000e+00
      vertex -2.006450e+01 8.181569e+00 0.000000e+00
    endloop
  endfacet
  facet normal 0.000000e+00 0.000000e+00 -1.000000e+00
    outer loop
      vertex 2.543550e+01 -8.478006e+00 0.000000e+00
      vertex -2.006450e+01 3.021994e+00 0.000000e+00
      vertex 2.297607e+01 -5.217820e+00 0.000000e+00
    endloop
  endfacet
  facet normal 0.000000e+00 0.000000e+00 -1.000000e+00
    outer loop
      vertex 2.543550e+01 -8.478006e+00 0.000000e+00
      vertex 2.297607e+01 -5.217820e+00 0.000000e+00
      vertex 2.493550e+01 -6.478006e+00 0.000000e+00
    endloop
  endfacet
  facet normal 0.000000e+00 0.000000e+00 -1.000000e+00
    outer loop
      vertex 2.493550e+01 -6.478006e+00 0.000000e+00
      vertex 2.297607e+01 -5.217820e+00 0.000000e+00
      vertex 2.493550e+01 5.219945e-01 0.000000e+00
    endloop
  endfacet
  facet normal 0.000000e+00 0.000000e+00 -1.000000e+00
    outer loop
      vertex 2.543550e+01 -8.478006e+00 0.000000e+00
      vertex 2.493550e+01 -6.478006e+00 0.000000e+00
      vertex 2.744381e+01 -6.478006e+00 0.000000e+00
    endloop
  endfacet
  facet normal 0.000000e+00 0.000000e+00 -1.000000e+00
    outer loop
      vertex 2.543550e+01 -8.478006e+00 0.000000e+00
      vertex 2.744381e+01 -6.478006e+00 0.000000e+00
      vertex 2.543550e+01 -8.521994e+00 0.000000e+00
    endloop
  endfacet
  facet normal 0.000000e+00 0.000000e+00 -1.000000e+00
    outer loop
      vertex 2.543550e+01 -8.521994e+00 0.000000e+00
      vertex 2.744381e+01 -6.478006e+00 0.000000e+00
      vertex 2.956450e+01 -8.521994e+00 0.000000e+00
    endloop
  endfacet
  facet normal 0.000000e+00 0.000000e+00 -1.000000e+00
    outer loop
      vertex 2.956450e+01 -8.521994e+00 0.000000e+00
      vertex 2.744381e+01 -6.478006e+00 0.000000e+00
      vertex 2.956450e+01 5.219945e-01 0.000000e+00
    endloop
  endfacet
  facet normal 0.000000e+00 0.000000e+00 1.000000e+00
    outer loop
      vertex 2.956450e+01 -8.521994e+00 2.000000e+00
      vertex 2.543550e+01 -8.478006e+00 2.000000e+00
      vertex 2.543550e+01 -8.521994e+00 2.000000e+00
    endloop
  endfacet
  facet normal 0.000000e+00 0.000000e+00 1.000000e+00
    outer loop
      vertex 2.543550e+01 -8.478006e+00 2.000000e+00
      vertex 2.956450e+01 -8.521994e+00 2.000000e+00
      vertex 2.744381e+01 -6.478006e+00 2.000000e+00
    endloop
  endfacet
  facet normal 0.000000e+00 0.000000e+00 1.000000e+00
    outer loop
      vertex 2.744381e+01 -6.478006e+00 2.000000e+00
      vertex 2.956450e+01 -8.521994e+00 2.000000e+00
      vertex 2.744381e+01 5.219945e-01 2.000000e+00
    endloop
  endfacet
  facet normal 0.000000e+00 0.000000e+00 1.000000e+00
    outer loop
      vertex 2.744381e+01 5.219945e-01 2.000000e+00
      vertex 2.956450e+01 -8.521994e+00 2.000000e+00
      vertex 2.956450e+01 5.219945e-01 2.000000e+00
    endloop
  endfacet
  facet normal 0.000000e+00 0.000000e+00 1.000000e+00
    outer loop
      vertex -2.956450e+01 2.077010e+00 2.000000e+00
      vertex -2.756450e+01 3.021994e+00 2.000000e+00
      vertex -2.956450e+01 8.521994e+00 2.000000e+00
    endloop
  endfacet
  facet normal 0.000000e+00 0.000000e+00 1.000000e+00
    outer loop
      vertex -2.756450e+01 3.021994e+00 2.000000e+00
      vertex -2.956450e+01 2.077010e+00 2.000000e+00
      vertex 2.543550e+01 -8.478006e+00 2.000000e+00
    endloop
  endfacet
  facet normal 0.000000e+00 0.000000e+00 1.000000e+00
    outer loop
      vertex -2.756450e+01 3.021994e+00 2.000000e+00
      vertex 2.543550e+01 -8.478006e+00 2.000000e+00
      vertex -2.206450e+01 3.021994e+00 2.000000e+00
    endloop
  endfacet
  facet normal 0.000000e+00 0.000000e+00 1.000000e+00
    outer loop
      vertex -2.206450e+01 3.021994e+00 2.000000e+00
      vertex 2.543550e+01 -8.478006e+00 2.000000e+00
      vertex -2.006450e+01 3.021994e+00 2.000000e+00
    endloop
  endfacet
  facet normal 0.000000e+00 0.000000e+00 1.000000e+00
    outer loop
      vertex -2.206450e+01 3.021994e+00 2.000000e+00
      vertex -2.006450e+01 3.021994e+00 2.000000e+00
      vertex -2.206450e+01 8.521994e+00 2.000000e+00
    endloop
  endfacet
  facet normal 0.000000e+00 0.000000e+00 1.000000e+00
    outer loop
      vertex -2.206450e+01 8.521994e+00 2.000000e+00
      vertex -2.006450e+01 3.021994e+00 2.000000e+00
      vertex -2.006450e+01 8.181569e+00 2.000000e+00
    endloop
  endfacet
  facet normal 0.000000e+00 0.000000e+00 1.000000e+00
    outer loop
      vertex -2.006450e+01 3.021994e+00 2.000000e+00
      vertex 2.543550e+01 -8.478006e+00 2.000000e+00
      vertex 2.297607e+01 -5.217820e+00 2.000000e+00
    endloop
  endfacet
  facet normal 0.000000e+00 0.000000e+00 1.000000e+00
    outer loop
      vertex 2.297607e+01 -5.217820e+00 2.000000e+00
      vertex 2.543550e+01 -8.478006e+00 2.000000e+00
      vertex 2.297607e+01 8.555135e-01 2.000000e+00
    endloop
  endfacet
  facet normal 0.000000e+00 0.000000e+00 1.000000e+00
    outer loop
      vertex 2.297607e+01 8.555135e-01 2.000000e+00
      vertex 2.543550e+01 -8.478006e+00 2.000000e+00
      vertex 2.493550e+01 -6.478006e+00 2.000000e+00
    endloop
  endfacet
  facet normal 0.000000e+00 0.000000e+00 1.000000e+00
    outer loop
      vertex 2.493550e+01 -6.478006e+00 2.000000e+00
      vertex 2.543550e+01 -8.478006e+00 2.000000e+00
      vertex 2.744381e+01 -6.478006e+00 2.000000e+00
    endloop
  endfacet
  facet normal 0.000000e+00 0.000000e+00 1.000000e+00
    outer loop
      vertex 2.493550e+01 5.219945e-01 2.000000e+00
      vertex 2.297607e+01 8.555135e-01 2.000000e+00
      vertex 2.493550e+01 -6.478006e+00 2.000000e+00
    endloop
  endfacet
  facet normal 0.000000e+00 0.000000e+00 1.000000e+00
    outer loop
      vertex -2.756450e+01 8.521994e+00 2.000000e+00
      vertex -2.956450e+01 8.521994e+00 2.000000e+00
      vertex -2.756450e+01 3.021994e+00 2.000000e+00
    endloop
  endfacet
  facet normal 1.677994e-01 9.858212e-01 0.000000e+00
    outer loop
      vertex -2.206450e+01 8.521994e+00 2.000000e+00
      vertex -2.006450e+01 8.181569e+00 0.000000e+00
      vertex -2.206450e+01 8.521994e+00 0.000000e+00
    endloop
  endfacet
  facet normal 1.677994e-01 9.858212e-01 0.000000e+00
    outer loop
      vertex -2.006450e+01 8.181569e+00 0.000000e+00
      vertex -2.206450e+01 8.521994e+00 2.000000e+00
      vertex -2.006450e+01 8.181569e+00 2.000000e+00
    endloop
  endfacet
  facet normal 1.000000e+00 5.465502e-16 0.000000e+00
    outer loop
      vertex -2.006450e+01 8.181569e+00 0.000000e+00
      vertex -2.006450e+01 3.021994e+00 2.000000e+00
      vertex -2.006450e+01 3.021994e+00 0.000000e+00
    endloop
  endfacet
  facet normal 1.000000e+00 5.465502e-16 0.000000e+00
    outer loop
      vertex -2.006450e+01 3.021994e+00 2.000000e+00
      vertex -2.006450e+01 8.181569e+00 0.000000e+00
      vertex -2.006450e+01 8.181569e+00 2.000000e+00
    endloop
  endfacet
  facet normal 1.880283e-01 9.821636e-01 0.000000e+00
    outer loop
      vertex -2.006450e+01 3.021994e+00 2.000000e+00
      vertex 2.297607e+01 -5.217820e+00 0.000000e+00
      vertex -2.006450e+01 3.021994e+00 0.000000e+00
    endloop
  endfacet
  facet normal 1.880283e-01 9.821636e-01 0.000000e+00
    outer loop
      vertex 2.297607e+01 -5.217820e+00 0.000000e+00
      vertex -2.006450e+01 3.021994e+00 2.000000e+00
      vertex 2.297607e+01 -5.217820e+00 2.000000e+00
    endloop
  endfacet
  facet normal -1.000000e+00 0.000000e+00 0.000000e+00
    outer loop
      vertex 2.297607e+01 8.555135e-01 2.000000e+00
      vertex 2.297607e+01 -5.217820e+00 0.000000e+00
      vertex 2.297607e+01 -5.217820e+00 2.000000e+00
    endloop
  endfacet
  facet normal -1.000000e+00 0.000000e+00 0.000000e+00
    outer loop
      vertex 2.297607e+01 -5.217820e+00 0.000000e+00
      vertex 2.297607e+01 8.555135e-01 2.000000e+00
      vertex 2.297607e+01 8.555135e-01 0.000000e+00
    endloop
  endfacet
  facet normal 1.677994e-01 9.858212e-01 0.000000e+00
    outer loop
      vertex 2.297607e+01 8.555135e-01 2.000000e+00
      vertex 2.493550e+01 5.219945e-01 0.000000e+00
      vertex 2.297607e+01 8.555135e-01 0.000000e+00
    endloop
  endfacet
  facet normal 1.677994e-01 9.858212e-01 0.000000e+00
    outer loop
      vertex 2.493550e+01 5.219945e-01 0.000000e+00
      vertex 2.297607e+01 8.555135e-01 2.000000e+00
      vertex 2.493550e+01 5.219945e-01 2.000000e+00
    endloop
  endfacet
  facet normal 1.000000e+00 0.000000e+00 0.000000e+00
    outer loop
      vertex 2.493550e+01 5.219945e-01 0.000000e+00
      vertex 2.493550e+01 -6.478006e+00 2.000000e+00
      vertex 2.493550e+01 -6.478006e+00 0.000000e+00
    endloop
  endfacet
  facet normal 1.000000e+00 0.000000e+00 0.000000e+00
    outer loop
      vertex 2.493550e+01 -6.478006e+00 2.000000e+00
      vertex 2.493550e+01 5.219945e-01 0.000000e+00
      vertex 2.493550e+01 5.219945e-01 2.000000e+00
    endloop
  endfacet
  facet normal 0.000000e+00 1.000000e+00 0.000000e+00
    outer loop
      vertex 2.493550e+01 -6.478006e+00 2.000000e+00
      vertex 2.744381e+01 -6.478006e+00 0.000000e+00
      vertex 2.493550e+01 -6.478006e+00 0.000000e+00
    endloop
  endfacet
  facet normal 0.000000e+00 1.000000e+00 0.000000e+00
    outer loop
      vertex 2.744381e+01 -6.478006e+00 0.000000e+00
      vertex 2.493550e+01 -6.478006e+00 2.000000e+00
      vertex 2.744381e+01 -6.478006e+00 2.000000e+00
    endloop
  endfacet
  facet normal -1.000000e+00 0.000000e+00 0.000000e+00
    outer loop
      vertex 2.744381e+01 5.219945e-01 2.000000e+00
      vertex 2.744381e+01 -6.478006e+00 0.000000e+00
      vertex 2.744381e+01 -6.478006e+00 2.000000e+00
    endloop
  endfacet
  facet normal -1.000000e+00 0.000000e+00 0.000000e+00
    outer loop
      vertex 2.744381e+01 -6.478006e+00 0.000000e+00
      vertex 2.744381e+01 5.219945e-01 2.000000e+00
      vertex 2.744381e+01 5.219945e-01 0.000000e+00
    endloop
  endfacet
  facet normal 0.000000e+00 1.000000e+00 0.000000e+00
    outer loop
      vertex 2.744381e+01 5.219945e-01 2.000000e+00
      vertex 2.956450e+01 5.219945e-01 0.000000e+00
      vertex 2.744381e+01 5.219945e-01 0.000000e+00
    endloop
  endfacet
  facet normal 0.000000e+00 1.000000e+00 0.000000e+00
    outer loop
      vertex 2.956450e+01 5.219945e-01 0.000000e+00
      vertex 2.744381e+01 5.219945e-01 2.000000e+00
      vertex 2.956450e+01 5.219945e-01 2.000000e+00
    endloop
  endfacet
  facet normal 1.000000e+00 0.000000e+00 0.000000e+00
    outer loop
      vertex 2.956450e+01 5.219945e-01 0.000000e+00
      vertex 2.956450e+01 -8.521994e+00 2.000000e+00
      vertex 2.956450e+01 -8.521994e+00 0.000000e+00
    endloop
  endfacet
  facet normal 1.000000e+00 0.000000e+00 0.000000e+00
    outer loop
      vertex 2.956450e+01 -8.521994e+00 2.000000e+00
      vertex 2.956450e+01 5.219945e-01 0.000000e+00
      vertex 2.956450e+01 5.219945e-01 2.000000e+00
    endloop
  endfacet
  facet normal -0.000000e+00 -1.000000e+00 -0.000000e+00
    outer loop
      vertex 2.956450e+01 -8.521994e+00 2.000000e+00
      vertex 2.543550e+01 -8.521994e+00 0.000000e+00
      vertex 2.956450e+01 -8.521994e+00 0.000000e+00
    endloop
  endfacet
  facet normal -0.000000e+00 -1.000000e+00 -0.000000e+00
    outer loop
      vertex 2.543550e+01 -8.521994e+00 0.000000e+00
      vertex 2.956450e+01 -8.521994e+00 2.000000e+00
      vertex 2.543550e+01 -8.521994e+00 2.000000e+00
    endloop
  endfacet
  facet normal -1.000000e+00 0.000000e+00 0.000000e+00
    outer loop
      vertex 2.543550e+01 -8.478006e+00 2.000000e+00
      vertex 2.543550e+01 -8.521994e+00 0.000000e+00
      vertex 2.543550e+01 -8.521994e+00 2.000000e+00
    endloop
  endfacet
  facet normal -1.000000e+00 0.000000e+00 0.000000e+00
    outer loop
      vertex 2.543550e+01 -8.521994e+00 0.000000e+00
      vertex 2.543550e+01 -8.478006e+00 2.000000e+00
      vertex 2.543550e+01 -8.478006e+00 0.000000e+00
    endloop
  endfacet
  facet normal -1.884702e-01 -9.820789e-01 -0.000000e+00
    outer loop
      vertex 2.543550e+01 -8.478006e+00 2.000000e+00
      vertex -2.956450e+01 2.077010e+00 0.000000e+00
      vertex 2.543550e+01 -8.478006e+00 0.000000e+00
    endloop
  endfacet
  facet normal -1.884702e-01 -9.820789e-01 -0.000000e+00
    outer loop
      vertex -2.956450e+01 2.077010e+00 0.000000e+00
      vertex 2.543550e+01 -8.478006e+00 2.000000e+00
      vertex -2.956450e+01 2.077010e+00 2.000000e+00
    endloop
  endfacet
  facet normal -1.000000e+00 0.000000e+00 0.000000e+00
    outer loop
      vertex -2.956450e+01 8.521994e+00 2.000000e+00
      vertex -2.956450e+01 2.077010e+00 0.000000e+00
      vertex -2.956450e+01 2.077010e+00 2.000000e+00
    endloop
  endfacet
  facet normal -1.000000e+00 0.000000e+00 0.000000e+00
    outer loop
      vertex -2.956450e+01 2.077010e+00 0.000000e+00
      vertex -2.956450e+01 8.521994e+00 2.000000e+00
      vertex -2.956450e+01 8.521994e+00 0.000000e+00
    endloop
  endfacet
  facet normal 0.000000e+00 1.000000e+00 0.000000e+00
    outer loop
      vertex -2.956450e+01 8.521994e+00 2.000000e+00
      vertex -2.756450e+01 8.521994e+00 0.000000e+00
      vertex -2.956450e+01 8.521994e+00 0.000000e+00
    endloop
  endfacet
  facet normal 0.000000e+00 1.000000e+00 0.000000e+00
    outer loop
      vertex -2.756450e+01 8.521994e+00 0.000000e+00
      vertex -2.956450e+01 8.521994e+00 2.000000e+00
      vertex -2.756450e+01 8.521994e+00 2.000000e+00
    endloop
  endfacet
  facet normal 1.000000e+00 0.000000e+00 0.000000e+00
    outer loop
      vertex -2.756450e+01 8.521994e+00 0.000000e+00
      vertex -2.756450e+01 3.021994e+00 2.000000e+00
      vertex -2.756450e+01 3.021994e+00 0.000000e+00
    endloop
  endfacet
  facet normal 1.000000e+00 0.000000e+00 0.000000e+00
    outer loop
      vertex -2.756450e+01 3.021994e+00 2.000000e+00
      vertex -2.756450e+01 8.521994e+00 0.000000e+00
      vertex -2.756450e+01 8.521994e+00 2.000000e+00
    endloop
  endfacet
  facet normal 0.000000e+00 1.000000e+00 0.000000e+00
    outer loop
      vertex -2.756450e+01 3.021994e+00 2.000000e+00
      vertex -2.206450e+01 3.021994e+00 0.000000e+00
      vertex -2.756450e+01 3.021994e+00 0.000000e+00
    endloop
  endfacet
  facet normal 0.000000e+00 1.000000e+00 0.000000e+00
    outer loop
      vertex -2.206450e+01 3.021994e+00 0.000000e+00
      vertex -2.756450e+01 3.021994e+00 2.000000e+00
      vertex -2.206450e+01 3.021994e+00 2.000000e+00
    endloop
  endfacet
  facet normal -1.000000e+00 0.000000e+00 0.000000e+00
    outer loop
      vertex -2.206450e+01 8.521994e+00 2.000000e+00
      vertex -2.206450e+01 3.021994e+00 0.000000e+00
      vertex -2.206450e+01 3.021994e+00 2.000000e+00
    endloop
  endfacet
  facet normal -1.000000e+00 0.000000e+00 0.000000e+00
    outer loop
      vertex -2.206450e+01 3.021994e+00 0.000000e+00
      vertex -2.206450e+01 8.521994e+00 2.000000e+00
      vertex -2.206450e+01 8.521994e+00 0.000000e+00
    endloop
  endfacet
endsolid Default
